<?xml version="1.0" encoding="utf-8"?>
<!-- Generator: Adobe Illustrator 26.0.0, SVG Export Plug-In . SVG Version: 6.00 Build 0)  -->
<svg version="1.1" id="Capa_1" xmlns="http://www.w3.org/2000/svg" xmlns:xlink="http://www.w3.org/1999/xlink" x="0px" y="0px"
	 viewBox="0 0 1080 325.14" style="enable-background:new 0 0 1080 325.14;" xml:space="preserve">
<style type="text/css">
	.st0{fill:#FFFFFF;stroke:#000000;stroke-width:3;stroke-miterlimit:10;}
</style>
<g>
	<path class="st0" d="M123.27,127.06v116.98l10.25,17.16h14.65l10.67-17.58V36.24c0-4.88,1.78-9.1,5.34-12.66
		c3.56-3.56,7.78-5.34,12.66-5.34c4.74,0,8.86,1.75,12.35,5.23c3.49,3.49,5.23,7.6,5.23,12.35v213.45c0,2.65-1.46,6.35-4.39,11.09
		l-16.32,26.99c-3.35,6-8.44,9-15.28,9h-33.06c-10.46,0-17.16-4.74-20.09-14.23c-3.21,9.49-9.63,14.23-19.25,14.23H55.06
		c-8.93,0-15.35-3.28-19.25-9.84l-15.07-25.32c-2.79-4.6-4.19-8.58-4.19-11.93V36.24c0-4.88,1.78-9.1,5.34-12.66
		c3.56-3.56,7.78-5.34,12.66-5.34c4.6,0,8.61,1.78,12.03,5.34c3.42,3.56,5.13,7.78,5.13,12.66v208.22l10.25,16.74h15.07l11.09-17.58
		V127.06c0-4.88,1.71-9.03,5.13-12.45c3.42-3.42,7.57-5.13,12.45-5.13c4.88,0,9.03,1.71,12.45,5.13
		C121.57,118.03,123.27,122.17,123.27,127.06z"/>
	<path class="st0" d="M325.21,46.85l36.34,78.35c5.11,10.67,7.54,22.18,7.27,34.51c-0.26,12.06-3.19,23.38-8.77,33.96l-39.72,75.86
		c-8.46,16.68-22.35,24.81-41.68,24.39c-9.19-0.2-17.39-2.78-24.62-7.74c-7.23-4.96-12.61-11.11-16.15-18.46l-36.56-77.54
		c-4.85-10.12-7.14-21.55-6.86-34.3s3.07-24.14,8.36-34.17l39.95-76.68c9.01-16.67,22.97-24.8,41.88-24.38
		C303.83,21.08,317.35,29.81,325.21,46.85z M272.19,62.97l-37.37,72c-3.45,7.19-5.25,14.29-5.4,21.28
		c-0.17,7.54,1.32,14.77,4.46,21.7l35.19,74.42c1.82,4.57,5.26,6.9,10.34,7.02c4.38,0.1,7.79-2.09,10.22-6.56l38.63-72.8
		c3.58-7.19,5.46-14.35,5.61-21.48c0.17-7.54-1.39-14.7-4.67-21.5L294.6,63.46c-2.21-5.4-5.79-8.15-10.72-8.26
		C278.95,55.1,275.05,57.68,272.19,62.97z"/>
	<path class="st0" d="M374.29,21.96h89.11c10.87,0,21.17,4.58,30.89,13.75c9.72,9.17,14.58,20.27,14.58,33.3
		c0,4.89-1.73,9.03-5.19,12.42c-3.46,3.4-7.3,5.09-11.51,5.09c-5.84,0-9.85-1.32-12.02-3.97c-2.17-2.65-4.25-7.57-6.22-14.77
		c-1.97-7.19-6.36-10.79-13.16-10.79h-84.68c-4.08,0-6.12,1.32-6.12,3.95c-0.11,1.66,0.72,3.58,2.49,5.75l127.22,162.21
		c6.13,7.87,9.19,16.28,9.19,25.25c0,10.18-3.7,19.14-11.1,26.88c-7.4,7.74-15.65,11.61-24.74,11.61h-92.26
		c-12.22,0-22.85-4.65-31.87-13.95c-9.03-9.3-13.54-19.52-13.54-30.65c0-12.76,5.97-19.14,17.92-19.14c4.61,0,8.55,1.66,11.81,4.99
		c3.26,3.33,4.89,7.23,4.89,11.71c0,3.67,1.25,6.72,3.77,9.17c2.51,2.44,5.67,3.67,9.47,3.67h85.13c3.67,0,5.5-1.45,5.5-4.36
		c0.1-1.38-0.73-3.16-2.5-5.33L344.33,86.51c-5.99-7.73-8.98-16.15-8.98-25.25c0-10.59,3.81-19.79,11.42-27.6
		C354.37,25.86,363.55,21.96,374.29,21.96z"/>
</g>
<g>
	<path class="st0" d="M547.87,275.8h25.89c1.99,0,3.72,1,5.17,3c1.45,2,2.18,4.42,2.18,7.28c0,2.85-0.73,5.28-2.18,7.28
		c-1.45,2-3.17,3-5.17,3h-26.81c-3.42,0-6.95-1.55-10.59-4.65c-3.64-3.1-6.18-6.56-7.6-10.4l-16.56-45.86
		c-2.22-6.6-3.33-13.37-3.33-20.3c0-7.66,1.05-14.31,3.16-19.94l16.74-45.37c1.59-4.24,4.07-7.97,7.43-11.19
		c3.36-3.22,6.6-4.83,9.73-4.83h28.35c1.99,0,3.68,1.02,5.08,3.06c1.39,2.04,2.09,4.44,2.09,7.22c0,2.85-0.7,5.32-2.09,7.4
		c-1.39,2.08-3.09,3.12-5.08,3.12h-27.31c-2.28,0.01-4.13,1.93-5.55,5.76l-15.91,42.54c-1.26,3.34-1.88,7.3-1.87,11.87
		c-0.01,4.82,0.67,9.06,2.04,12.73l15.19,41.83C542.29,273.66,544.62,275.82,547.87,275.8z"/>
	<path class="st0" d="M617.09,148.85l15.8,46.11c2.22,6.28,3.33,13.09,3.33,20.42c0,7.18-1.11,13.94-3.33,20.3l-15.8,45.62
		c-3.36,10.03-9.05,15.04-17.08,15.04c-3.81,0-7.24-1.43-10.29-4.28c-3.04-2.85-5.34-6.44-6.87-10.76l-15.88-45.62
		c-2.11-5.95-3.16-12.72-3.16-20.3s1.05-14.39,3.16-20.42l15.88-46.11c3.59-10.03,9.31-15.04,17.16-15.04
		C607.99,133.81,613.68,138.82,617.09,148.85z M595.23,159.13l-14.86,43.29c-1.37,4.32-2.05,8.56-2.05,12.72
		c0,4.49,0.68,8.77,2.05,12.84l15.28,43.78c0.8,2.69,2.25,4.04,4.35,4.04c1.82,0,3.22-1.35,4.19-4.04l15.37-43.78
		c1.42-4.32,2.13-8.6,2.13-12.84c0-4.48-0.71-8.72-2.13-12.72l-15.03-43.29c-0.97-3.18-2.48-4.77-4.53-4.77
		S596.37,155.95,595.23,159.13z"/>
	<path class="st0" d="M667.81,197.65v-5.26l-14.86-30.33v124.01c0,2.85-0.7,5.28-2.09,7.28c-1.4,2-3.09,3-5.08,3
		c-1.99,0-3.69-1.02-5.08-3.06c-1.4-2.04-2.09-4.44-2.09-7.22V133.81h18.55l17.62,36.82l18.21-36.82h18.2v152.27
		c0,2.85-0.73,5.28-2.18,7.28c-1.45,2-3.17,3-5.17,3c-1.94,0-3.62-1.02-5.04-3.06c-1.42-2.04-2.13-4.44-2.13-7.22V162.55
		l-14.52,29.35v5.75c0,2.77-0.71,5.18-2.13,7.22c-1.42,2.04-3.1,3.06-5.04,3.06c-1.99,0-3.69-1.02-5.08-3.06
		C668.51,202.83,667.81,200.42,667.81,197.65z"/>
	<path class="st0" d="M739.99,197.65v-5.26l-14.86-30.33v124.01c0,2.85-0.7,5.28-2.09,7.28c-1.4,2-3.09,3-5.08,3
		c-1.99,0-3.69-1.02-5.08-3.06c-1.4-2.04-2.09-4.44-2.09-7.22V133.81h18.55l17.62,36.82l18.21-36.82h18.2v152.27
		c0,2.85-0.73,5.28-2.18,7.28c-1.45,2-3.17,3-5.17,3c-1.94,0-3.62-1.02-5.04-3.06c-1.42-2.04-2.13-4.44-2.13-7.22V162.55
		l-14.52,29.35v5.75c0,2.77-0.71,5.18-2.13,7.22c-1.42,2.04-3.1,3.06-5.04,3.06c-1.99,0-3.69-1.02-5.08-3.06
		C740.68,202.83,739.99,200.42,739.99,197.65z"/>
	<path class="st0" d="M848.37,154.6h-50.72v50.02h21.86c1.93,0,3.61,1.02,5.04,3.06c1.42,2.04,2.14,4.44,2.14,7.22
		c0,2.94-0.7,5.42-2.09,7.46c-1.4,2.04-3.09,3.06-5.08,3.06h-21.86v50.39h50.89c1.93,0,3.61,1,5.04,3c1.42,2,2.14,4.42,2.14,7.28
		c0,2.85-0.73,5.28-2.18,7.28c-1.45,2-3.17,3-5.17,3h-65.06V133.81h65.06c1.99,0,3.71,1.04,5.17,3.12c1.45,2.08,2.18,4.55,2.18,7.4
		c0,2.77-0.73,5.18-2.18,7.22C852.08,153.58,850.36,154.6,848.37,154.6z"/>
	<path class="st0" d="M855.65,286.08V133.81h50.72c5.86,0,10.91,3.06,15.15,9.17c4.24,6.12,6.36,13.41,6.36,21.89v11.74
		c0,8.56-2.11,15.88-6.32,21.95c-4.21,6.08-9.28,9.11-15.2,9.11h-9.14l29.29,72.16c0.91,2.12,1.36,4.24,1.36,6.36
		c0,2.77-0.74,5.16-2.23,7.16c-1.48,2-3.17,3-5.05,3c-2.86,0.02-5.02-1.81-6.49-5.48l-33.59-83.19h-10.36v78.4
		c0,2.85-0.73,5.28-2.18,7.28c-1.45,2-3.17,3-5.17,3c-1.99,0-3.69-1-5.08-3C856.35,291.36,855.65,288.93,855.65,286.08z M870,187.13
		h36.38c1.99,0,3.68-1,5.08-3c1.39-2,2.09-4.42,2.09-7.28v-11.99c0-2.85-0.7-5.28-2.09-7.28c-1.4-2-3.09-3-5.08-3H870V187.13z"/>
	<path class="st0" d="M962.82,275.8h25.89c1.99,0,3.72,1,5.17,3c1.45,2,2.18,4.42,2.18,7.28c0,2.85-0.73,5.28-2.18,7.28
		c-1.45,2-3.17,3-5.17,3H961.9c-3.42,0-6.94-1.55-10.59-4.65c-3.64-3.1-6.18-6.56-7.6-10.4l-16.56-45.86
		c-2.22-6.6-3.33-13.37-3.33-20.3c0-7.66,1.05-14.31,3.16-19.94l16.74-45.37c1.59-4.24,4.07-7.97,7.43-11.19
		c3.36-3.22,6.6-4.83,9.73-4.83h28.35c1.99,0,3.69,1.02,5.08,3.06c1.39,2.04,2.09,4.44,2.09,7.22c0,2.85-0.7,5.32-2.09,7.4
		c-1.39,2.08-3.09,3.12-5.08,3.12h-27.31c-2.28,0.01-4.13,1.93-5.55,5.76l-15.91,42.54c-1.25,3.34-1.88,7.3-1.87,11.87
		c-0.01,4.82,0.67,9.06,2.04,12.73l15.19,41.83C957.24,273.66,959.57,275.82,962.82,275.8z"/>
	<path class="st0" d="M1063.51,154.6h-50.72v50.02h21.86c1.93,0,3.61,1.02,5.04,3.06c1.42,2.04,2.14,4.44,2.14,7.22
		c0,2.94-0.7,5.42-2.09,7.46c-1.4,2.04-3.09,3.06-5.08,3.06h-21.86v50.39h50.89c1.93,0,3.61,1,5.04,3c1.42,2,2.14,4.42,2.14,7.28
		c0,2.85-0.73,5.28-2.18,7.28c-1.45,2-3.17,3-5.17,3h-65.06V133.81h65.06c1.99,0,3.71,1.04,5.17,3.12c1.45,2.08,2.18,4.55,2.18,7.4
		c0,2.77-0.73,5.18-2.18,7.22C1067.22,153.58,1065.5,154.6,1063.51,154.6z"/>
</g>
</svg>
